<svg width="314" height="131" viewBox="0 0 314 131" fill="none" xmlns="http://www.w3.org/2000/svg">
<path d="M0 65.3168H313.521V130.634H0V65.3168Z" fill="black"/>
<path fill-rule="evenodd" clip-rule="evenodd" d="M311.521 67.3168H2V128.634H311.521V67.3168ZM0 65.3168V130.634H313.521V65.3168H0Z" fill="white"/>
<path d="M0 0H313.521V65.3168H0V0Z" fill="white"/>
<g clip-path="url(#clip0_12_1711)">
<g clip-path="url(#clip1_12_1711)">
<g clip-path="url(#clip2_12_1711)">
<path d="M182.689 24.6085V20.3513H162.455L156.961 24.6085V30.4545L162.455 34.7117H180.089V40.7125H158.053V44.9654H178.833L184.328 40.7125V34.7117L178.833 30.4545H161.199V24.6085H182.689Z" fill="black"/>
<path d="M76.7794 20.3513H72.9195L58.7621 44.9654H63.6575L74.8583 25.498L86.0458 44.9654H90.9368L76.7794 20.3513Z" fill="black"/>
<path d="M118.864 20.3513H91.4964V24.6085H103.063V44.9654H107.297V24.6085H118.864V20.3513Z" fill="black"/>
<path d="M218.494 20.3513H191.131V24.6085H202.693V44.9654H206.932V24.6085H218.494V20.3513Z" fill="black"/>
<path d="M47.905 20.3513H26.0322V44.9654H47.905L53.3997 40.7081V24.6085L47.905 20.3513ZM30.2711 24.6085H49.1608V40.7125H30.2711V24.6085Z" fill="black"/>
<path d="M268.55 32.6583L266.1 28.4011V28.4055L261.469 20.3513H256.573L263.654 32.6583L256.573 44.9654H261.469L266.1 36.9156L268.55 32.6583Z" fill="black"/>
<path d="M275.512 32.6583L277.962 28.4011V28.4055L282.597 20.3513H287.488L280.411 32.6583L287.488 44.9654H282.597L277.962 36.9156L275.512 32.6583Z" fill="black"/>
<path d="M133.581 20.3513H137.441L151.598 44.9654H146.703L135.502 25.498L124.314 44.9654H119.423L133.581 20.3513Z" fill="black"/>
<path d="M233.211 20.3513H237.071L251.229 44.9654H246.338L235.132 25.498L223.949 44.9654H219.054L233.211 20.3513Z" fill="black"/>
</g>
</g>
</g>
<path d="M61.498 110.613L69.568 88.7129H73.648L81.988 110.613H79.648L71.878 90.1529L73.108 90.7829H69.958L71.248 90.1529L63.778 110.613H61.498ZM65.818 103.653L66.568 101.583H76.738L77.518 103.653H65.818Z" fill="white"/>
<path d="M100.484 111.123C98.5242 111.123 96.8442 110.783 95.4442 110.103C94.0642 109.403 92.9342 108.493 92.0542 107.373C91.1942 106.253 90.5642 105.043 90.1642 103.743C89.7642 102.423 89.5642 101.143 89.5642 99.9029V99.3329C89.5642 97.9929 89.7642 96.6629 90.1642 95.3429C90.5842 94.0029 91.2242 92.7929 92.0842 91.7129C92.9642 90.6329 94.0842 89.7729 95.4442 89.1329C96.8042 88.4729 98.4142 88.1429 100.274 88.1429C102.154 88.1429 103.774 88.4729 105.134 89.1329C106.514 89.7929 107.614 90.7229 108.434 91.9229C109.254 93.1029 109.754 94.5029 109.934 96.1229H107.624C107.464 94.8229 107.044 93.7429 106.364 92.8829C105.684 92.0029 104.814 91.3429 103.754 90.9029C102.714 90.4629 101.554 90.2429 100.274 90.2429C98.8942 90.2429 97.6742 90.4929 96.6142 90.9929C95.5742 91.4729 94.7042 92.1529 94.0042 93.0329C93.3042 93.8929 92.7742 94.8929 92.4142 96.0329C92.0542 97.1529 91.8742 98.3529 91.8742 99.6329C91.8742 100.853 92.0442 102.023 92.3842 103.143C92.7442 104.263 93.2842 105.273 94.0042 106.173C94.7242 107.053 95.6242 107.753 96.7042 108.273C97.7842 108.773 99.0442 109.023 100.484 109.023C102.484 109.023 104.164 108.523 105.524 107.523C106.884 106.503 107.724 105.043 108.044 103.143H110.354C110.134 104.643 109.614 106.003 108.794 107.223C107.974 108.423 106.864 109.373 105.464 110.073C104.084 110.773 102.424 111.123 100.484 111.123Z" fill="white"/>
<path d="M117.767 110.613L125.837 88.7129H129.917L138.257 110.613H135.917L128.147 90.1529L129.377 90.7829H126.227L127.517 90.1529L120.047 110.613H117.767ZM122.087 103.653L122.837 101.583H133.007L133.787 103.653H122.087Z" fill="white"/>
<path d="M149.747 110.733V108.633H155.717C157.197 108.633 158.487 108.393 159.587 107.913C160.707 107.433 161.647 106.783 162.407 105.963C163.167 105.123 163.737 104.163 164.117 103.083C164.497 102.003 164.687 100.853 164.687 99.6329C164.687 98.3729 164.487 97.2029 164.087 96.1229C163.707 95.0429 163.137 94.0929 162.377 93.2729C161.617 92.4529 160.677 91.8229 159.557 91.3829C158.457 90.9429 157.177 90.7229 155.717 90.7229H149.747V88.6229H155.477C157.437 88.6229 159.137 88.9229 160.577 89.5229C162.017 90.1229 163.217 90.9429 164.177 91.9829C165.137 93.0029 165.847 94.1529 166.307 95.4329C166.767 96.7129 166.997 98.0129 166.997 99.3329V99.9029C166.997 101.203 166.767 102.493 166.307 103.773C165.847 105.053 165.147 106.223 164.207 107.283C163.267 108.323 162.067 109.163 160.607 109.803C159.167 110.423 157.457 110.733 155.477 110.733H149.747ZM148.067 110.733V88.6229H150.347V110.733H148.067Z" fill="white"/>
<path d="M177.315 110.613V88.7129H179.595V110.613H177.315ZM179.055 110.613V108.543H190.005V110.613H179.055ZM179.055 100.503V98.4629H188.985V100.503H179.055ZM179.055 90.7829V88.7129H189.675V90.7829H179.055Z" fill="white"/>
<path d="M200.791 110.613V88.7129H203.761L210.661 103.863H211.201L218.071 88.7129H221.101V110.613H218.821V91.2629L219.001 91.2929L212.341 105.993H209.341L202.651 91.2929L202.891 91.2629V110.613H200.791Z" fill="white"/>
<path d="M237.609 102.033L230.559 88.7129H232.959L239.169 100.623L238.209 100.233H241.539L240.549 100.623L246.429 88.7129H248.679L242.049 102.033H237.609ZM238.689 110.613V101.523H240.939V110.613H238.689Z" fill="white"/>
<defs>
<clipPath id="clip0_12_1711">
<rect width="261.456" height="24.614" fill="white" transform="translate(26.0322 20.3513)"/>
</clipPath>
<clipPath id="clip1_12_1711">
<rect width="261.519" height="24.614" fill="white" transform="translate(26.0322 20.3513)"/>
</clipPath>
<clipPath id="clip2_12_1711">
<rect width="261.456" height="24.614" fill="white" transform="translate(26.0322 20.3513)"/>
</clipPath>
</defs>
</svg>
