<svg width="256" height="72" viewBox="0 0 256 72" fill="none" xmlns="http://www.w3.org/2000/svg">
<path d="M53.75 52.8501C52.6 51.7001 52 49.8502 52 47.2502C52 44.6502 52.6 42.8001 53.75 41.6501C54.9 40.5001 56.7501 39.9001 59.3501 39.9001H68.1001V32.6501H56.7C54.35 32.6501 52.25 32.9501 50.4 33.6001C48.55 34.2501 47.0501 35.1501 45.8001 36.4001C44.5501 37.6501 43.6 39.1501 43 41.0001C42.35 42.8001 42.05 44.9002 42.05 47.2502C42.05 52.0002 43.3001 55.6501 45.8001 58.1502C48.3001 60.6502 51.95 61.9002 56.7 61.9002H68.5001V54.6001H59.3501C56.7501 54.6001 54.9 54.0002 53.75 52.8501Z" fill="#3980D3"/>
<path d="M99.2 35.5501C98.2 34.5501 96.95 33.8001 95.4 33.3501C93.85 32.8501 92 32.6501 89.9 32.6501H74.05V39.8501H89.4C90.5 39.8501 91.25 40.1001 91.75 40.5501C92.2 41.0001 92.45 41.8001 92.45 42.8501V43.2002H81.4C78.35 43.2002 76.05 44.0001 74.45 45.6001C72.85 47.2001 72.05 49.5501 72.05 52.5501C72.05 55.5501 72.85 57.8502 74.45 59.5002C76.05 61.1502 78.4 61.9002 81.4 61.9002H102.15V44.8501C102.15 42.7001 101.9 40.9001 101.45 39.3501C100.9 37.8501 100.2 36.5501 99.2 35.5501ZM92.5 54.8001H84.1C83.4 54.8001 82.8 54.6002 82.4 54.2002C82 53.8002 81.8 53.2502 81.8 52.5501C81.8 51.8001 82 51.2501 82.4 50.8501C82.8 50.4501 83.35 50.2502 84.1 50.2502H92.5V54.8001Z" fill="#3980D3"/>
<path d="M128 32.65H120.9C118.55 32.65 116.45 32.95 114.6 33.6C112.75 34.25 111.25 35.15 110 36.4C108.75 37.65 107.8 39.15 107.2 41C106.55 42.8 106.25 44.9 106.25 47.25C106.25 52 107.5 55.65 110 58.15C112.5 60.65 116.15 61.9 120.9 61.9H137.7V22.05H127.95V32.65H128ZM128 54.7001H123.65C121.05 54.7001 119.2 54.1 118 52.9C116.8 51.7 116.2 49.85 116.2 47.25C116.2 44.65 116.8 42.8 118 41.6C119.2 40.4 121.1 39.8 123.65 39.8H128V54.7001Z" fill="#3980D3"/>
<path d="M217.8 35.5501C216.8 34.5501 215.55 33.8001 214 33.3501C212.45 32.8501 210.65 32.6501 208.5 32.6501H176V61.9001H185.7V40.1001H193.5V61.9501H203.2V40.1001H206.55C208.15 40.1001 209.25 40.4501 209.95 41.1501C210.65 41.8501 211 42.9501 211 44.5501V61.9501H220.7V44.8501C220.7 42.7001 220.45 40.9001 220 39.3501C219.55 37.8501 218.8 36.5501 217.8 35.5501Z" fill="#3980D3"/>
<path d="M246.15 32.6501L238.9 51.6001L231.75 32.6501H222L233.75 61.9001L229.8 71.5001H240.1L255.6 32.6501H246.15Z" fill="#3980D3"/>
<path d="M169.4 38.4501C168.95 37.7001 168.4 37.0001 167.75 36.4001C166.5 35.1501 165 34.2001 163.15 33.6001C161.35 32.9501 159.25 32.6501 156.9 32.6501C154.55 32.6501 152.45 32.9501 150.65 33.6001C148.8 34.2501 147.3 35.1501 146.05 36.4001C145.45 37.0001 144.9 37.7001 144.4 38.4501C143.95 39.2001 143.55 40.0501 143.2 40.9501C142.55 42.7501 142.25 44.8501 142.25 47.2001C142.25 51.9501 143.5 55.6001 146 58.1001C148.5 60.6001 152.15 61.8501 156.9 61.8501H169.6V54.6501H158.3C157.25 54.6501 156.3 54.5501 155.55 54.3501C154.8 54.1501 154.2 53.9001 153.7 53.5501C153.2 53.2001 152.85 52.8001 152.6 52.3001C152.35 51.8001 152.2 51.3001 152.15 50.7501H171.2C171.35 49.6501 171.45 48.5001 171.45 47.2001C171.45 44.8501 171.15 42.7501 170.5 40.9501C170.25 40.1001 169.85 39.2501 169.4 38.4501ZM152.2 43.6501C153 38.6001 160.75 38.7001 161.55 43.6501H152.2Z" fill="#3980D3"/>
<path d="M13.15 26.7501L0 61.9001H10.9L20.9001 31.5501L30.8501 61.9501H41.7501L28.6001 26.8001C25.9001 19.7501 15.95 19.5001 13.15 26.7501Z" fill="#3980D3"/>
<path d="M9.34998 1.4C8.89999 0.95 8.29999 0.6 7.59999 0.35C6.9 0.15 6.05 0 5.10001 0H0.0500488V11.3H5.10001C6.05 11.3 6.9 11.2 7.59999 10.95C8.29999 10.75 8.89999 10.4 9.34998 9.9C9.79998 9.45 10.15 8.85 10.4 8.15C10.6 7.45 10.7499 6.6 10.7499 5.65C10.7499 4.7 10.65 3.85 10.4 3.15C10.15 2.45 9.84998 1.9 9.34998 1.4ZM7.64998 7.25C7.54998 7.65 7.34999 8 7.1 8.25C6.85 8.5 6.5 8.7 6.1 8.8C5.7 8.9 5.15002 8.95 4.55002 8.95H2.85002V2.4H4.55002C5.15002 2.4 5.7 2.45 6.1 2.55C6.5 2.65 6.85 2.85 7.1 3.1C7.34999 3.35 7.54998 3.7 7.64998 4.1C7.74998 4.5 7.8 5.05 7.8 5.65C7.8 6.25 7.74998 6.85 7.64998 7.25Z" fill="#6B7682"/>
<path d="M19.55 3.89993C19.25 3.59993 18.9 3.39993 18.45 3.24993C18 3.09993 17.5 3.04993 16.9 3.04993H12.4V5.09993H16.75C17.05 5.09993 17.3 5.14993 17.4 5.29993C17.55 5.44993 17.6 5.64993 17.6 5.94993V6.04993H14.45C13.6 6.04993 12.95 6.29993 12.5 6.74993C12.05 7.19993 11.8 7.84993 11.8 8.69993C11.8 9.54993 12.05 10.1999 12.5 10.6499C12.95 11.0999 13.6 11.3499 14.45 11.3499H20.35V6.49993C20.35 5.89993 20.3 5.39993 20.15 4.94993C20.05 4.49993 19.85 4.14993 19.55 3.89993ZM17.65 9.34993H15.25C15.05 9.34993 14.9 9.29993 14.75 9.19993C14.65 9.09993 14.6 8.94993 14.6 8.74993C14.6 8.54993 14.65 8.39993 14.75 8.24993C14.85 8.14993 15 8.09993 15.25 8.09993H17.65V9.34993Z" fill="#6B7682"/>
<path d="M25.4999 9.14998C25.3999 9.04998 25.35 8.84998 25.35 8.54998V5.09998H27.9V3.04998H25.35V0.849976H22.6V3.04998H21.45V5.09998H22.6V8.69998C22.6 9.19998 22.6499 9.59997 22.7499 9.94998C22.8499 10.3 23 10.55 23.2 10.75C23.4 10.95 23.6999 11.1 23.9999 11.2C24.3499 11.3 24.7499 11.35 25.2499 11.35H27.95V9.29998H26.1C25.85 9.29998 25.6499 9.24998 25.4999 9.14998Z" fill="#6B7682"/>
<path d="M36.55 3.89993C36.25 3.59993 35.9 3.39993 35.45 3.24993C35 3.09993 34.5 3.04993 33.9 3.04993H29.4V5.09993H33.75C34.05 5.09993 34.3 5.14993 34.4 5.29993C34.55 5.44993 34.6 5.64993 34.6 5.94993V6.04993H31.45C30.6 6.04993 29.95 6.29993 29.5 6.74993C29.05 7.19993 28.8 7.84993 28.8 8.69993C28.8 9.54993 29.05 10.1999 29.5 10.6499C29.95 11.0999 30.6 11.3499 31.45 11.3499H37.35V6.49993C37.35 5.89993 37.3 5.39993 37.15 4.94993C37.05 4.49993 36.85 4.14993 36.55 3.89993ZM34.7 9.34993H32.3C32.1 9.34993 31.95 9.29993 31.8 9.19993C31.7 9.09993 31.65 8.94993 31.65 8.74993C31.65 8.54993 31.7 8.39993 31.8 8.24993C31.9 8.14993 32.05 8.09993 32.3 8.09993H34.7V9.34993Z" fill="#6B7682"/>
<path d="M44.7 4.49993H42.6C42.25 4.49993 42 4.39993 41.8 4.24993C41.6 4.04993 41.55 3.79993 41.55 3.44993C41.55 3.09993 41.65 2.84993 41.8 2.64993C42 2.44993 42.25 2.39993 42.6 2.39993H47.65V0.0499268H41.9999C40.8499 0.0499268 40 0.349927 39.45 0.899927C38.9 1.44993 38.6 2.29993 38.6 3.44993C38.6 4.59993 38.9 5.44993 39.45 5.99993C40 6.54993 40.8499 6.84993 41.9999 6.84993H44.15C44.85 6.84993 45.2 7.19993 45.2 7.89993C45.2 8.59993 44.85 8.94993 44.15 8.94993H38.95V11.2999H44.7499C45.8999 11.2999 46.75 10.9999 47.3 10.4499C47.9 9.84993 48.15 8.99993 48.15 7.89993C48.15 6.79993 47.85 5.89993 47.3 5.34993C46.75 4.79993 45.85 4.49993 44.7 4.49993Z" fill="#6B7682"/>
<path d="M53.15 9.14998C53.05 9.04998 52.9999 8.84998 52.9999 8.54998V5.09998H55.55V3.04998H52.9999V0.849976H50.2499V3.04998H49.1V5.09998H50.2499V8.69998C50.2499 9.19998 50.3 9.59997 50.4 9.94998C50.5 10.3 50.65 10.55 50.85 10.75C51.05 10.95 51.35 11.1 51.65 11.2C52 11.3 52.4 11.35 52.9 11.35H55.6V9.29998H53.7499C53.4499 9.29998 53.25 9.24998 53.15 9.14998Z" fill="#6B7682"/>
<path d="M64.2 3.89993C63.9 3.59993 63.55 3.39993 63.1 3.24993C62.65 3.09993 62.15 3.04993 61.55 3.04993H57.05V5.09993H61.4C61.7 5.09993 61.95 5.14993 62.05 5.29993C62.2 5.44993 62.2499 5.64993 62.2499 5.94993V6.04993H59.1C58.25 6.04993 57.6 6.29993 57.15 6.74993C56.7 7.19993 56.45 7.84993 56.45 8.69993C56.45 9.54993 56.7 10.1999 57.15 10.6499C57.6 11.0999 58.25 11.3499 59.1 11.3499H64.9999V6.49993C64.9999 5.89993 64.95 5.39993 64.8 4.94993C64.7 4.49993 64.5 4.14993 64.2 3.89993ZM62.3 9.34993H59.9C59.7 9.34993 59.55 9.29993 59.4 9.19993C59.3 9.09993 59.2499 8.94993 59.2499 8.74993C59.2499 8.54993 59.3 8.39993 59.4 8.24993C59.5 8.14993 59.65 8.09993 59.9 8.09993H62.3V9.34993Z" fill="#6B7682"/>
<path d="M72 7.14993L75.1 3.04993H72.1L70.45 5.44993L68.75 3.04993H65.7L68.75 7.14993L65.55 11.3499H68.6L70.35 8.84993L72.1 11.3499H75.25L72 7.14993Z" fill="#6B7682"/>
</svg>
